<svg height='300px' width='300px'  fill="#ffffff" xmlns:dc="http://purl.org/dc/elements/1.1/" xmlns:cc="http://creativecommons.org/ns#" xmlns:rdf="http://www.w3.org/1999/02/22-rdf-syntax-ns#" xmlns:svg="http://www.w3.org/2000/svg" xmlns="http://www.w3.org/2000/svg" xmlns:sodipodi="http://sodipodi.sourceforge.net/DTD/sodipodi-0.dtd" xmlns:inkscape="http://www.inkscape.org/namespaces/inkscape" viewBox="0 0 4.2333333 4.2333335" version="1.1" x="0px" y="0px"><g transform="translate(0,-292.76665)"><path style="color:#000000;font-style:normal;font-variant:normal;font-weight:normal;font-stretch:normal;font-size:medium;line-height:normal;font-family:sans-serif;font-variant-ligatures:normal;font-variant-position:normal;font-variant-caps:normal;font-variant-numeric:normal;font-variant-alternates:normal;font-feature-settings:normal;text-indent:0;text-align:start;text-decoration:none;text-decoration-line:none;text-decoration-style:solid;text-decoration-color:#000000;letter-spacing:normal;word-spacing:normal;text-transform:none;writing-mode:lr-tb;direction:ltr;text-orientation:mixed;dominant-baseline:auto;baseline-shift:baseline;text-anchor:start;white-space:normal;shape-padding:0;clip-rule:nonzero;display:inline;overflow:visible;visibility:visible;opacity:1;isolation:auto;mix-blend-mode:normal;color-interpolation:sRGB;color-interpolation-filters:linearRGB;solid-color:#000000;solid-opacity:1;vector-effect:none;fill:#ffffff;fill-opacity:1;fill-rule:nonzero;stroke:none;stroke-width:0.26458332;stroke-linecap:round;stroke-linejoin:round;stroke-miterlimit:4;stroke-dasharray:none;stroke-dashoffset:0;stroke-opacity:1;color-rendering:auto;image-rendering:auto;shape-rendering:auto;text-rendering:auto;enable-background:accumulate" d="m 2.512786,294.08972 a 0.13230489,0.13230489 0 0 0 -0.0124,5.3e-4 0.13230489,0.13230489 0 0 0 -0.0801,0.22686 l 0.8294101,0.82786 H 0.66639599 a 0.13230489,0.13230489 0 0 0 -0.0139,0 0.13299147,0.13299147 0 0 0 0.0139,0.26561 H 3.5509761 a 0.13258252,0.13258252 0 0 0 0.1524399,-0.11007 0.13258252,0.13258252 0 0 0 0.00201,-0.0134 0.132815,0.132815 0 0 0 -0.0558,-0.11782 l -1.0413008,-1.03973 a 0.13230489,0.13230489 0 0 0 -0.0951,-0.0398 z"></path></g></svg>