<svg height='300px' width='300px'  fill="#0669b2" xmlns="http://www.w3.org/2000/svg" xmlns:xlink="http://www.w3.org/1999/xlink" version="1.1" x="0px" y="0px" viewBox="0 0 90 90" enable-background="new 0 0 90 90" xml:space="preserve"><path d="M79.106,47.453c0.833-0.041,1.698,0.484,2.187,1.334c0.678,1.166,0.438,2.567-0.525,3.124  c-0.963,0.553-2.292,0.058-2.963-1.109c-0.678-1.166-0.442-2.567,0.521-3.124C78.56,47.542,78.825,47.464,79.106,47.453z   M65.003,34.609h5.347c1.136,0,1.287,0,1.917,1.043l4.401,7.29c0.692,1.142-0.157,2.052-1.177,1.798l-10.504-2.625  c-0.86-0.213-1.25-0.302-1.25-1.244v-5C63.737,35.069,63.935,34.609,65.003,34.609z M8.597,22.93c-1.803,0-3.26,0.891-3.26,3.005  v30.997c0,2.114,1.453,3.817,3.254,3.817h2.098c0-4.489,3.647-8.135,8.135-8.135c2.156,0,4.229,0.859,5.754,2.384  c1.043,1.043,1.767,2.345,2.121,3.751c0.896-3.521,4.078-6.135,7.874-6.135c2.157,0,4.229,0.859,5.755,2.384  c1.525,1.527,2.38,3.595,2.38,5.751H62.07c0-4.489,3.646-8.135,8.135-8.135c2.156,0,4.224,0.859,5.749,2.384  c1.527,1.527,2.387,3.595,2.387,5.751h3.5c1.566,0,2.823-1.479,2.823-3.309v-7.17c0-2.817-0.25-3.452-1.063-4.785l-7.379-12.197  c-1.292-2.13-1.656-3.297-4.271-3.297h-12.78c-1.548,0-2.193,0.979-2.193,2.448v17.611c0,0.679-0.547,1.224-1.224,1.224  c-0.678,0-1.219-0.545-1.219-1.224V25.935c0-2.114-1.459-3.005-3.26-3.005H8.597z"></path><path d="M34.573,67.004c-3.452,0-6.254-2.802-6.254-6.255s2.802-6.26,6.254-6.26c1.663,0,3.255,0.661,4.428,1.833  c1.172,1.176,1.833,2.771,1.833,4.427C40.834,64.202,38.031,67.004,34.573,67.004z M34.573,63.093c1.297,0,2.349-1.052,2.349-2.344  c0-1.297-1.052-2.349-2.349-2.349c-1.291,0-2.342,1.052-2.342,2.349C32.23,62.041,33.282,63.093,34.573,63.093z"></path><path d="M70.206,67.004c-3.453,0-6.254-2.802-6.254-6.255s2.801-6.26,6.254-6.26c1.661,0,3.249,0.661,4.421,1.833  c1.177,1.176,1.838,2.771,1.838,4.427C76.465,64.202,73.658,67.004,70.206,67.004z M70.206,63.093c1.297,0,2.349-1.052,2.349-2.344  c0-1.297-1.052-2.349-2.349-2.349s-2.344,1.052-2.344,2.349C67.862,62.041,68.908,63.093,70.206,63.093z"></path><path d="M18.825,67.004c-3.453,0-6.254-2.802-6.254-6.255s2.801-6.26,6.254-6.26c1.662,0,3.254,0.661,4.427,1.833  c1.172,1.176,1.833,2.771,1.833,4.427C25.084,64.202,22.284,67.004,18.825,67.004z M18.825,63.093c1.297,0,2.35-1.052,2.35-2.344  c0-1.297-1.052-2.349-2.35-2.349c-1.292,0-2.343,1.052-2.343,2.349C16.481,62.041,17.533,63.093,18.825,63.093z"></path></svg>