<svg height='300px' width='300px'  fill="#0669b2" xmlns="http://www.w3.org/2000/svg" xmlns:xlink="http://www.w3.org/1999/xlink" version="1.1" x="0px" y="0px" viewBox="0 0 90 90" enable-background="new 0 0 90 90" xml:space="preserve"><path fill-rule="evenodd" clip-rule="evenodd" d="M56.157,61.371H33.766c-1.968,0-4.506,2.167-4.506,4.864h31.402  C60.662,63.538,58.131,61.371,56.157,61.371z M14.459,49.819c-1.86-0.017-2.641,0.571-2.938,1.489  c-0.532,1.63-1.141,4.853,1.755,5.916c2.375,0.871,7.385,1.495,10.047,1.891c2.563,0.385,3.208-1.124,2.313-3.379  c-1.658-4.192-5.412-5.074-8.943-5.683C15.813,49.902,15.08,49.828,14.459,49.819z M75.459,49.819  c-0.62,0.009-1.354,0.083-2.235,0.233c-3.521,0.609-7.281,1.491-8.938,5.683c-0.891,2.256-0.25,3.765,2.313,3.379  c2.667-0.4,7.661-1.02,10.041-1.891c2.896-1.063,2.292-4.285,1.761-5.916C78.105,50.391,77.318,49.803,75.459,49.819z   M44.959,16.407c-8.98,0-14.38,0.254-17.407,1.063c-1.297,0.35-2.213,1.678-2.552,2.636l-6.303,17.276  c5.396,0.411,16.303,1.369,26.262,1.369c9.962,0,20.864-0.958,26.26-1.369l-6.292-17.276c-0.339-0.958-1.265-2.286-2.563-2.636  C59.339,16.662,53.938,16.407,44.959,16.407z M44.959,11.115c9.058,0,14.629,0.136,18.781,1.246  c3.546,0.954,5.343,3.823,6.172,5.973l6.552,17.068l5.088-0.005c2.052,0,3.093,0.975,3.093,2.636c0,2.213-1.036,4.276-3.869,5.74  l0.754,1.342c0.996,1.896,1.724,3.907,1.724,5.705v14.724c0,2.463-1.703,4.541-3.692,5.317v5.552c0,1.35-1.078,2.427-2.422,2.427  h-6.885c-1.343,0-2.432-1.078-2.432-2.427v-5.213h-45.73v5.213c0,1.35-1.083,2.427-2.426,2.427h-6.891  c-1.344,0-2.421-1.078-2.421-2.427V70.86c-1.986-0.776-3.688-2.854-3.688-5.317V50.819c0-1.798,0.724-3.808,1.719-5.705l0.754-1.342  c-2.828-1.464-3.869-3.527-3.864-5.74c0-1.662,1.036-2.636,3.088-2.636l5.1,0.005l6.546-17.068c0.823-2.15,2.625-5.02,6.172-5.973  C30.334,11.251,35.902,11.115,44.959,11.115z"></path></svg>