<svg height='300px' width='300px'  fill="#0669b2" xmlns="http://www.w3.org/2000/svg" xmlns:xlink="http://www.w3.org/1999/xlink" viewBox="0 0 12 12" version="1.1" x="0px" y="0px"><title>close</title><g stroke="none" stroke-width="1" fill="none" fill-rule="evenodd"><g transform="translate(-184.000000, -64.000000)" fill="#0669b2" fill-rule="nonzero"><path d="M185.626522,64.2114758 L185.721525,64.295367 L190,68.574 L194.278475,64.295367 C194.672297,63.9015443 195.31081,63.9015443 195.704633,64.295367 C196.068162,64.6588957 196.096125,65.2309177 195.788524,65.6265223 L195.704633,65.7215253 L191.426,70 L195.704633,74.2784747 C196.098456,74.6722974 196.098456,75.3108102 195.704633,75.704633 C195.341104,76.0681616 194.769082,76.0961254 194.373478,75.7885242 L194.278475,75.704633 L190,71.426 L185.721525,75.704633 C185.327703,76.0984557 184.68919,76.0984557 184.295367,75.704633 C183.931838,75.3411043 183.903875,74.7690823 184.211476,74.3734777 L184.295367,74.2784747 L188.574,70 L184.295367,65.7215253 C183.901544,65.3277026 183.901544,64.6891898 184.295367,64.295367 C184.658896,63.9318384 185.230918,63.9038746 185.626522,64.2114758 Z"></path></g></g></svg>