<svg height='300px' width='300px'  fill="#c8015d" xmlns="http://www.w3.org/2000/svg" xmlns:xlink="http://www.w3.org/1999/xlink" version="1.1" x="0px" y="0px" viewBox="0 0 98 98" style="enable-background:new 0 0 98 98;" xml:space="preserve"><title>31</title><path d="M83.1,23H66v-2.8c-0.1-4.5-3.7-8.1-8.2-8.2H40.2c-4.5,0.1-8.1,3.7-8.2,8.2V23H14.9c-1.7,0-3,1.3-3,3s1.3,3,3,3h5.3l3.2,49.3  c0.2,4.3,3.7,7.7,8,7.7h35.2c4.3,0,7.8-3.4,8-7.7L77.8,29h5.3c1.7,0,3-1.3,3-3S84.8,23,83.1,23z M44,68c0,1.7-1.3,3-3,3s-3-1.3-3-3  V40.9c0-1.7,1.3-3,3-3s3,1.3,3,3V68z M60,68c0,1.7-1.3,3-3,3s-3-1.3-3-3V40.9c0-1.7,1.3-3,3-3s3,1.3,3,3V68z M60,23H38v-2.8  c0.1-1.2,1-2.1,2.2-2.2h17.6c1.2,0.1,2.1,1,2.2,2.2V23z"></path></svg>