<svg height='300px' width='300px'  fill="#0669b2" xmlns="http://www.w3.org/2000/svg" xmlns:xlink="http://www.w3.org/1999/xlink" version="1.1" x="0px" y="0px" viewBox="0 0 84 84" style="enable-background:new 0 0 84 84;" xml:space="preserve"><path d="M42,34c-4.41,0-8,3.59-8,8c0,4.41,3.59,8,8,8s8-3.59,8-8C50,37.59,46.41,34,42,34z M42,48c-3.31,0-6-2.69-6-6s2.69-6,6-6  s6,2.69,6,6S45.31,48,42,48z"></path><path d="M70.58,41.19L55.61,30.5c-8.14-5.82-19.08-5.82-27.22,0L13.42,41.19C13.16,41.37,13,41.68,13,42s0.16,0.63,0.42,0.81  L28.39,53.5c4.07,2.91,8.84,4.37,13.61,4.37s9.54-1.46,13.61-4.37l14.97-10.69C70.84,42.63,71,42.32,71,42S70.84,41.37,70.58,41.19z   M54.45,51.88C47,57.2,37,57.2,29.55,51.88L15.72,42l13.83-9.88c7.45-5.32,17.45-5.32,24.9,0L68.28,42L54.45,51.88z"></path></svg>