<svg height='300px' width='300px'  fill="#0669b2" xmlns="http://www.w3.org/2000/svg" xmlns:xlink="http://www.w3.org/1999/xlink" version="1.1" x="0px" y="0px" viewBox="0 0 84 84" style="enable-background:new 0 0 84 84;" xml:space="preserve"><path d="M42,48.13c-0.71,0-1.42-0.13-2.11-0.38l-0.68,1.88c0.9,0.33,1.84,0.5,2.79,0.5c4.41,0,8-3.59,8-8  c0-0.99-0.17-1.93-0.52-2.81l-1.86,0.74C47.87,40.7,48,41.39,48,42.13C48,45.44,45.31,48.13,42,48.13z"></path><path d="M70.58,41.32l-13.94-9.95l-1.16,1.62l12.8,9.14l-13.83,9.88c-6.07,4.34-14.1,5.19-20.96,2.22l-0.8,1.84  c2.97,1.28,6.13,1.91,9.29,1.91c4.82,0,9.62-1.47,13.63-4.35l14.97-10.69c0.26-0.18,0.42-0.49,0.42-0.81S70.84,41.5,70.58,41.32z"></path><path d="M27.21,52.78l1.18,0.85c0.11,0.08,0.22,0.16,0.33,0.23l-7.43,7.43l1.42,1.42l9.63-9.63l23.01-23l7.36-7.37l-1.42-1.42  l-7.91,7.91c-0.74-0.39-1.49-0.76-2.27-1.08c-7.44-3.16-16.15-2.2-22.72,2.51L13.42,41.32C13.16,41.5,13,41.81,13,42.13  s0.16,0.63,0.42,0.81L27.21,52.78z M37.06,45.52c-0.32-0.45-0.57-0.94-0.74-1.45C36.11,43.45,36,42.79,36,42.13c0-3.31,2.69-6,6-6  c0.67,0,1.32,0.11,1.94,0.33c0.51,0.17,1,0.41,1.45,0.73L37.06,45.52z M29.55,32.25c6.01-4.3,13.98-5.18,20.79-2.29  c0.53,0.22,1.05,0.46,1.55,0.73l-5.06,5.06c-0.69-0.52-1.44-0.92-2.24-1.18c-0.82-0.29-1.69-0.44-2.59-0.44c-4.41,0-8,3.59-8,8  c0,0.88,0.14,1.75,0.42,2.58c0.27,0.8,0.68,1.57,1.21,2.24l-5.46,5.46c-0.21-0.12-0.42-0.26-0.62-0.4l-13.83-9.88L29.55,32.25z"></path></svg>