<svg height='300px' width='300px'  fill="#0669b2" xmlns="http://www.w3.org/2000/svg" viewBox="0 0 32 32" x="0px" y="0px"><title>Artboard 23</title><g data-name="Layer 2"><path d="M20,9H4A3,3,0,0,1,4,3H20a3,3,0,0,1,0,6ZM4,5A1,1,0,0,0,4,7H20a1,1,0,0,0,0-2Z"></path><path d="M28,29H4a3,3,0,0,1,0-6H28a3,3,0,0,1,0,6ZM4,25a1,1,0,0,0,0,2H28a1,1,0,0,0,0-2Z"></path><path d="M28,19H4a3,3,0,0,1,0-6H28a3,3,0,0,1,0,6ZM4,15a1,1,0,0,0,0,2H28a1,1,0,0,0,0-2Z"></path><rect x="2" y="4" width="20" height="4" rx="2" ry="2"></rect><rect x="2" y="24" width="28" height="4" rx="2" ry="2"></rect><rect x="2" y="14" width="28" height="4" rx="2" ry="2"></rect></g></svg>