<svg height='300px' width='300px'  fill="#0669b2" xmlns="http://www.w3.org/2000/svg" xmlns:xlink="http://www.w3.org/1999/xlink" version="1.1" x="0px" y="0px" viewBox="0 0 84 84" style="enable-background:new 0 0 84 84;" xml:space="preserve"><path d="M14,60h11c0.282,0,0.551-0.119,0.741-0.328l29-32c0.183-0.202,0.275-0.47,0.256-0.742c-0.019-0.271-0.148-0.523-0.357-0.698  l-12-10c-0.413-0.343-1.022-0.301-1.382,0.099l-28,31C13.092,47.514,13,47.752,13,48v11C13,59.553,13.448,60,14,60z M15,50.414  L22.586,58H15V50.414z M42.098,18.384l10.461,8.717L24.964,57.55l-9.585-9.585L42.098,18.384z"></path><rect x="14" y="64" width="56" height="2"></rect></svg>