<svg height='300px' width='300px'  fill="#0669b2" xmlns="http://www.w3.org/2000/svg" xmlns:xlink="http://www.w3.org/1999/xlink" version="1.1" x="0px" y="0px" viewBox="0 0 100 100" enable-background="new 0 0 100 100" xml:space="preserve"><path d="M87.48,95c1.924,0,3.85-0.734,5.317-2.203c2.937-2.936,2.937-7.698,0-10.635L74.516,63.881  c9.776-14.724,8.182-34.822-4.786-47.79c-14.788-14.788-38.85-14.788-53.638,0s-14.788,38.85,0,53.639  c7.394,7.394,17.107,11.091,26.819,11.091c7.322,0,14.642-2.103,20.971-6.305l18.281,18.281C83.63,94.266,85.555,95,87.48,95z   M25.419,60.402c-9.644-9.644-9.644-25.337,0-34.981c4.822-4.822,11.157-7.234,17.491-7.234s12.669,2.411,17.492,7.234  c9.644,9.644,9.644,25.337,0,34.981C50.757,70.046,35.064,70.046,25.419,60.402z"></path></svg>