<svg height='300px' width='300px'  fill="#0669b2" xmlns="http://www.w3.org/2000/svg" xmlns:xlink="http://www.w3.org/1999/xlink" version="1.1" x="0px" y="0px" viewBox="0 0 84 84" style="enable-background:new 0 0 84 84;" xml:space="preserve"><path d="M66,21H18c-2.757,0-5,2.243-5,5v32c0,2.757,2.243,5,5,5h48c2.757,0,5-2.243,5-5V26C71,23.243,68.757,21,66,21z M18,23h48  c1.654,0,3,1.346,3,3v2.362L42,40.897L15,28.362V26C15,24.346,16.346,23,18,23z M66,61H18c-1.654,0-3-1.346-3-3V30.567l26.579,12.34  C41.713,42.969,41.856,43,42,43s0.287-0.031,0.421-0.093L69,30.567V58C69,59.654,67.654,61,66,61z"></path><path d="M22,51c-1.654,0-3,1.346-3,3s1.346,3,3,3s3-1.346,3-3S23.654,51,22,51z M22,55c-0.552,0-1-0.448-1-1s0.448-1,1-1  s1,0.448,1,1S22.552,55,22,55z"></path></svg>