<svg height='300px' width='300px'  fill="#0669b2" xmlns="http://www.w3.org/2000/svg" xmlns:xlink="http://www.w3.org/1999/xlink" version="1.1" x="0px" y="0px" viewBox="0 0 90 90" enable-background="new 0 0 90 90" xml:space="preserve"><path d="M68.943,32.642c1.387,0.012,4.053,1.657,4.959,2.96c1.313,1.89-0.824,3.354-3.193,1.868  c-1.223-0.77-3.307-3.415-2.473-4.545C68.377,32.727,68.627,32.637,68.943,32.642z M62.199,21.919  c-1.566-0.035-2.801,1.694-2.369,2.804l1.494,3.838c0.59,1.51,0.172,2.328-0.625,2.655c-13.107,7.201-26.115,14.546-38.926,22.252  c-2.438,1.553-0.594,4.521,1.875,3.756l3.254-1.016c-0.025,0.422-0.072,0.844-0.188,1.271c-0.885,3.297-4.281,5.255-7.576,4.369  c-3.297-0.881-5.256-4.275-4.375-7.572c0.885-3.296,4.281-5.254,7.576-4.374l5.516-3.749c-1.193-0.875-2.541-1.542-3.994-1.933  c-6.432-1.724-13.051,2.099-14.773,8.535c-1.725,6.432,2.098,13.05,8.529,14.774c6.432,1.724,13.051-2.094,14.773-8.53  c0.406-1.51,0.506-3.067,0.318-4.589l2.859-0.89c0.129,0.771,0.207,1.556,0.207,2.359c0,1.463-0.213,2.868-0.604,4.208h19.414  c-0.391-1.34-0.604-2.745-0.604-4.208c0-5.427,2.875-10.165,7.182-12.821l5.779,13.201c1.125,2.567,4.994,1.625,4.318-1.442  l-1.115-5.021c2.891,0.526,5.084,3.047,5.084,6.083c0,3.411-2.771,6.182-6.188,6.182c-3.41,0-6.182-2.771-6.182-6.182  c0-0.672,0.109-1.313,0.307-1.917l-3.098-6.124c-1.916,2.134-3.088,4.947-3.088,8.041c0,6.66,5.4,12.061,12.061,12.061  s12.066-5.4,12.066-12.061c0-3.197-1.271-6.265-3.537-8.53c-2.26-2.26-5.332-3.536-8.529-3.536c-0.072,0-0.146,0.005-0.219,0.011  l-0.625-2.817h6.941c1.297,0,2.521-0.442,2.234-2.302c-1.166-7.563-5.973-15.196-14.857-16.753  C62.414,21.937,62.305,21.919,62.199,21.919z"></path><path d="M51.107,29.367c-0.803,0.011-1.629,0.084-2.473,0.209c-4.256,0.666-8.225,2.718-10.369,5.557  c-1.1,1.458-1.646,2.192-3.463,2.192h-2.928c-1.859,0-1.656-1.047-2.988-2.074c-1.24-0.957-2.463-1.91-5.213-1.962l-8.385-0.12  c-2.15,0-2.191,1.047-1.119,3.317c0.682,1.453,2.125,3.239,3.9,3.583l4.645,0.896c2.525,0.337,5.01,1.198,6.963,2.833  c0.615,0.509,1.172,1.052,1.697,1.613l25.658-14.814C55.389,29.773,53.348,29.342,51.107,29.367z"></path></svg>