<svg height='300px' width='300px'  fill="#0669b2" xmlns="http://www.w3.org/2000/svg" xmlns:xlink="http://www.w3.org/1999/xlink" version="1.1" x="0px" y="0px" viewBox="0 0 84 84" style="enable-background:new 0 0 84 84;" xml:space="preserve"><path d="M56,27c0-7.72-6.28-14-14-14s-14,6.28-14,14c0,7.72,6.28,14,14,14S56,34.72,56,27z M30,27c0-6.62,5.38-12,12-12  s12,5.38,12,12s-5.38,12-12,12S30,33.62,30,27z"></path><path d="M42,46c-13.23,0-24,10.77-24,24c0,0.55,0.45,1,1,1h46c0.55,0,1-0.45,1-1C66,56.77,55.23,46,42,46z M20.02,69  C20.55,57.33,30.2,48,42,48s21.45,9.33,21.98,21H20.02z"></path></svg>