<svg height='300px' width='300px'  fill="#0669b2" xmlns="http://www.w3.org/2000/svg" xmlns:xlink="http://www.w3.org/1999/xlink" version="1.1" x="0px" y="0px" viewBox="0 0 100 100" enable-background="new 0 0 100 100" xml:space="preserve"><path d="M50,95c24.8,0,45-20.2,45-45S74.8,5,50,5C25.2,5,5,25.2,5,50S25.2,95,50,95z M50,11.2c21.4,0,38.8,17.4,38.8,38.8  c0,21.4-17.4,38.8-38.8,38.8S11.2,71.4,11.2,50C11.2,28.6,28.6,11.2,50,11.2z"></path><path d="M42.5,65.7c0.6,0.5,1.3,0.7,2,0.7c0.8,0,1.6-0.3,2.2-0.9l26.3-26.6c1.2-1.2,1.2-3.2,0-4.4c-1.2-1.2-3.2-1.2-4.4,0L44.3,59.1  l-10.4-8.8c-1.3-1.1-3.3-0.9-4.4,0.4c-1.1,1.3-0.9,3.3,0.4,4.4L42.5,65.7z"></path></svg>