<svg height='300px' width='300px'  fill="#0669b2" xmlns="http://www.w3.org/2000/svg" xmlns:xlink="http://www.w3.org/1999/xlink" version="1.1" x="0px" y="0px" viewBox="0 0 84 84" style="enable-background:new 0 0 84 84;" xml:space="preserve"><path d="M39,54.2V61c0,1.65,1.35,3,3,3s3-1.35,3-3v-6.8c1.84-1.07,3-3.05,3-5.2c0-3.31-2.69-6-6-6s-6,2.69-6,6  C36,51.15,37.16,53.13,39,54.2z M42,45c2.21,0,4,1.79,4,4c0,1.58-0.94,3.03-2.41,3.68C43.23,52.84,43,53.19,43,53.59V61  c0,0.55-0.45,1-1,1s-1-0.45-1-1v-7.41c0-0.4-0.23-0.75-0.59-0.91C38.94,52.03,38,50.58,38,49C38,46.79,39.79,45,42,45z"></path><path d="M24,37c-1.65,0-3,1.35-3,3v28c0,1.65,1.35,3,3,3h36c1.65,0,3-1.35,3-3V40c0-1.65-1.35-3-3-3h-1v-7c0-9.37-7.63-17-17-17  s-17,7.63-17,17h2c0-8.27,6.73-15,15-15s15,6.73,15,15v7H24z M60,39c0.55,0,1,0.45,1,1v28c0,0.55-0.45,1-1,1H24c-0.55,0-1-0.45-1-1  V40c0-0.55,0.45-1,1-1H60z"></path></svg>