<svg height='300px' width='300px'  fill="#0669b2" xmlns="http://www.w3.org/2000/svg" xmlns:xlink="http://www.w3.org/1999/xlink" version="1.1" x="0px" y="0px" viewBox="0 0 100 100" style="enable-background:new 0 0 100 100;" xml:space="preserve"><path d="M60.9580078,90c5.5136719,0,10-4.4863281,10-10V20c0-5.5136719-4.4863281-10-10-10H39.0419922  c-5.5136719,0-10,4.4863281-10,10v60c0,5.5136719,4.4863281,10,10,10H60.9580078z M31.0419922,21.6025391h37.9160156v50.1259766  H31.0419922V21.6025391z M39.0419922,12h21.9160156c4.2769775,0,7.7706909,3.3765869,7.9798584,7.6025391H31.0621338  C31.2713013,15.3765869,34.7650146,12,39.0419922,12z M31.0419922,80v-6.2714844h37.9160156V80c0,4.4111328-3.5888672,8-8,8  H39.0419922C34.6308594,88,31.0419922,84.4111328,31.0419922,80z"></path><path d="M38.4570312,58.5214844c-0.390625-0.390625-1.0234375-0.390625-1.4140625,0s-0.390625,1.0234375,0,1.4140625  l4.3339844,4.3339844C41.5722656,64.4648438,41.828125,64.5625,42.0839844,64.5625s0.5117188-0.0976562,0.7070312-0.2929688  c0.390625-0.390625,0.390625-1.0234375,0-1.4140625L38.4570312,58.5214844z"></path><path d="M50.328125,62.2685547L39.0439453,50.9833984c-0.390625-0.390625-1.0234375-0.390625-1.4140625,0  s-0.390625,1.0234375,0,1.4140625l11.2841797,11.2851562c0.1953125,0.1953125,0.4511719,0.2929688,0.7070312,0.2929688  s0.5117188-0.0976562,0.7070312-0.2929688C50.71875,63.2919922,50.71875,62.6591797,50.328125,62.2685547z"></path><path d="M47.5048828,84.7138672h4.9902344c2.15625,0,3.9101562-1.7548828,3.9101562-3.9111328  s-1.7539062-3.9111328-3.9101562-3.9111328h-4.9902344c-2.15625,0-3.9101562,1.7548828-3.9101562,3.9111328  S45.3486328,84.7138672,47.5048828,84.7138672z M47.5048828,78.8916016h4.9902344  c1.0537109,0,1.9101562,0.8574219,1.9101562,1.9111328s-0.8564453,1.9111328-1.9101562,1.9111328h-4.9902344  c-1.0537109,0-1.9101562-0.8574219-1.9101562-1.9111328S46.4511719,78.8916016,47.5048828,78.8916016z"></path></svg>