<svg height='300px' width='300px'  fill="#0669b2" xmlns="http://www.w3.org/2000/svg" viewBox="0 0 96 96" x="0px" y="0px"><title>13  User, Account, Circle, Person</title><g data-name="13  User, Account, Circle, Person"><path d="M76.3,76.74a39.61,39.61,0,0,0,8.53-12.65l0-.06c.23-.54.44-1.08.65-1.63l.15-.43c.18-.51.36-1,.52-1.53.06-.19.11-.38.16-.57.22-.74.42-1.5.6-2.26.1-.41.2-.83.28-1.24s.12-.65.17-1,.15-.9.22-1.36c0-.3.08-.6.11-.9.06-.51.11-1,.15-1.54l.06-.77c0-.77.07-1.55.07-2.33a40,40,0,0,0-80,0c0,.78,0,1.56.07,2.33l.06.77c0,.51.09,1,.15,1.54,0,.3.07.6.11.9.07.46.14.91.22,1.36s.11.65.17,1,.18.82.28,1.24c.18.76.38,1.52.6,2.27.05.19.1.38.16.56.16.52.34,1,.52,1.53l.15.42c.21.56.42,1.1.65,1.65l0,0A39.8,39.8,0,0,0,19.7,76.75l.05,0q.63.63,1.29,1.23l.32.29c.52.46,1.06.91,1.6,1.35s.79.64,1.2.94l.68.48c.43.31.87.61,1.31.9l.31.21.27.16c.65.41,1.3.8,2,1.17l.33.19c.68.36,1.37.71,2.07,1l.78.35c.58.26,1.16.5,1.76.73l.56.22c.75.28,1.51.53,2.27.76l.73.21c.62.17,1.25.33,1.88.47l.61.15c.81.17,1.63.32,2.46.44l.53.07c.68.09,1.37.16,2,.22l.7,0c.85,0,1.71.09,2.57.09s1.72,0,2.57-.09l.7,0c.68-.06,1.37-.13,2-.22l.55-.07c.82-.12,1.64-.27,2.45-.44l.61-.15c.63-.14,1.26-.3,1.88-.47l.73-.21c.76-.23,1.52-.48,2.27-.76l.57-.22c.59-.23,1.17-.47,1.75-.72l.78-.36q1-.48,2-1l.38-.21c.66-.36,1.3-.75,1.94-1.15l.28-.17.31-.21c.44-.29.88-.59,1.31-.9l.68-.48c.41-.31.81-.62,1.2-.94.55-.44,1.07-.89,1.59-1.34L75,78q.66-.6,1.29-1.23ZM48,10.5a38,38,0,0,1,38,38c0,.74,0,1.48-.07,2.22,0,.24,0,.48-.05.72,0,.49-.09,1-.14,1.47,0,.28-.07.57-.11.85-.06.44-.13.87-.21,1.3s-.1.61-.16.91-.18.8-.27,1.2c-.17.71-.35,1.41-.56,2.11-.05.19-.1.38-.16.57-.15.48-.32,1-.49,1.43l-.15.43c-.19.52-.39,1-.61,1.54l0,.08a38,38,0,0,1-8.07,12l-.1.1c-.38.38-.78.76-1.18,1.13l-.38.34c-.42.37-.85.74-1.28,1.09s-.88.71-1.34,1l-.61.44-.11.08a22,22,0,0,0-43.82,0L26,79.44,25.36,79c-.45-.33-.88-.68-1.31-1s-.88-.73-1.31-1.11l-.37-.33L21.18,75.4l-.09-.09a38.36,38.36,0,0,1-8.08-12l0-.08c-.21-.51-.42-1-.61-1.54l-.15-.42c-.17-.48-.34-1-.49-1.44-.06-.19-.11-.38-.16-.57-.21-.69-.39-1.4-.56-2.11-.09-.4-.19-.8-.27-1.2s-.11-.61-.16-.91-.15-.86-.21-1.3c0-.28-.07-.57-.11-.85,0-.49-.1-1-.14-1.47,0-.24,0-.48,0-.72C10,50,10,49.24,10,48.5A38,38,0,0,1,48,10.5ZM66,82c-.64.34-1.29.66-2,1l-.74.34c-.55.24-1.1.47-1.66.68l-.54.22c-.71.26-1.43.5-2.16.71l-.7.2q-.87.26-1.77.45l-.59.14c-.77.16-1.55.3-2.33.42l-.51.06q-1,.13-1.95.21l-.66,0c-.81.06-1.62.09-2.44.09s-1.63,0-2.44-.09l-.66,0q-1-.08-1.95-.21l-.51-.06c-.78-.12-1.56-.26-2.33-.42l-.59-.14c-.6-.13-1.19-.28-1.78-.45l-.69-.2c-.73-.21-1.45-.45-2.16-.71L34.36,84c-.57-.22-1.13-.45-1.68-.7-.24-.1-.49-.21-.73-.33-.67-.31-1.33-.63-2-1l-.29-.16c-.56-.31-1.1-.64-1.64-1A20,20,0,0,1,68,80.8c-.53.34-1.07.67-1.63,1ZM48,52.5a13,13,0,1,0-13-13A13,13,0,0,0,48,52.5Zm0-24a11,11,0,1,1-11,11A11,11,0,0,1,48,28.5Z"></path></g></svg>