<svg height='300px' width='300px'  fill="#c8015d" xmlns="http://www.w3.org/2000/svg" viewBox="0 0 32 32" x="0px" y="0px"><title>cancel</title><g data-name="12-cancel"><path d="M16,1A15,15,0,1,0,31,16,15.017,15.017,0,0,0,16,1Zm0,28A13,13,0,1,1,29,16,13.0144,13.0144,0,0,1,16,29Zm5.6567-17.2427L17.4141,16l4.2426,4.2427a1,1,0,1,1-1.414,1.414L16,17.4141l-4.2427,4.2426a1,1,0,0,1-1.414-1.414L14.5859,16l-4.2426-4.2427a1,1,0,0,1,1.414-1.414L16,14.5859l4.2427-4.2426a1,1,0,0,1,1.414,1.414Z"></path></g></svg>